HIERARCHY
ROOT Hips
{
    OFFSET 0.000000 0.000000 0.000000
    CHANNELS 6 Xposition Yposition Zposition Zrotation Xrotation Yrotation
    JOINT Spine
    {
        OFFSET -0.000000 14.517291 0.000000
        CHANNELS 3 Zrotation Xrotation Yrotation
        JOINT Spine1
        {
            OFFSET -0.000000 37.558300 0.000000
            CHANNELS 3 Zrotation Xrotation Yrotation
            JOINT Neck
            {
                OFFSET -0.000000 37.404057 3.400369
                CHANNELS 3 Zrotation Xrotation Yrotation
                JOINT Head
                {
                    OFFSET -0.000000 24.785618 -3.540803
                    CHANNELS 3 Zrotation Xrotation Yrotation
                    End Site
                    {
                        OFFSET -0.000000 35.408028 0.000000
                    }
                }
            }
            JOINT LeftShoulder
            {
                OFFSET 6.992933 33.973492 -0.192664
                CHANNELS 3 Zrotation Xrotation Yrotation
                JOINT LeftArm
                {
                    OFFSET 21.527611 0.000000 0.000000
                    CHANNELS 3 Zrotation Xrotation Yrotation
                    JOINT LeftForeArm
                    {
                        OFFSET 56.353916 0.000000 0.000000
                        CHANNELS 3 Zrotation Xrotation Yrotation
                        JOINT LeftHand
                        {
                            OFFSET 47.774071 0.000000 0.000000
                            CHANNELS 3 Zrotation Xrotation Yrotation
                            End Site
                            {
                                OFFSET 26.556021 0.000000 0.000000
                            }
                        }
                    }
                }
            }
            JOINT RightShoulder
            {
                OFFSET -7.065357 33.973492 -0.192664
                CHANNELS 3 Zrotation Xrotation Yrotation
                JOINT RightArm
                {
                    OFFSET -21.527611 0.000000 0.000000
                    CHANNELS 3 Zrotation Xrotation Yrotation
                    JOINT RightForeArm
                    {
                        OFFSET -56.353916 0.000000 0.000000
                        CHANNELS 3 Zrotation Xrotation Yrotation
                        JOINT RightHand
                        {
                            OFFSET -47.774071 0.000000 0.000000
                            CHANNELS 3 Zrotation Xrotation Yrotation
                            End Site
                            {
                                OFFSET -26.556021 0.000000 0.000000
                            }
                        }
                    }
                }
            }
        }
    }
    JOINT LeftUpLeg
    {
        OFFSET 17.704014 0.000000 0.000000
        CHANNELS 3 Zrotation Xrotation Yrotation
        JOINT LeftLeg
        {
            OFFSET -0.000000 -81.181816 0.000000
            CHANNELS 3 Zrotation Xrotation Yrotation
            JOINT LeftFoot
            {
                OFFSET -0.000000 -62.821102 0.000000
                CHANNELS 3 Zrotation Xrotation Yrotation
                JOINT LeftToeBase
                {
                    OFFSET -0.000000 -11.507608 26.556021
                    CHANNELS 3 Zrotation Xrotation Yrotation
                    End Site
                    {
                        OFFSET -0.000000 0.000000 7.081605
                    }
                }
            }
        }
    }
    JOINT RightUpLeg
    {
        OFFSET -17.704014 0.000000 0.000000
        CHANNELS 3 Zrotation Xrotation Yrotation
        JOINT RightLeg
        {
            OFFSET -0.000000 -81.181816 0.000000
            CHANNELS 3 Zrotation Xrotation Yrotation
            JOINT RightFoot
            {
                OFFSET -0.000000 -62.821102 0.000000
                CHANNELS 3 Zrotation Xrotation Yrotation
                JOINT RightToeBase
                {
                    OFFSET -0.000000 -11.507608 26.556021
                    CHANNELS 3 Zrotation Xrotation Yrotation
                    End Site
                    {
                        OFFSET -0.000000 0.000000 7.081605
                    }
                }
            }
        }
    }
}
MOTION
Frames:    12
Frame Time:    0.008333
-6.628344    150.550034    -27.607704    1.891909    1.844951    14.336953    -1.434025    2.767094    7.248158    -2.562253    -1.126275    2.379625    -1.657664    3.716489    -12.022387    10.552292    -7.065207    -10.200883    -1.329139    6.378176    -7.833693    -42.043346    19.191076    -36.381069    1.227042    -31.489925    -126.353027    -10.791378    -28.297796    -13.235335    -1.746406    11.538331    0.048545    40.794750    10.655511    53.158062    -30.251421    -31.131714    57.883011    15.283151    -10.743422    34.135471    -2.333214    -34.683754    -23.483311    -14.290946    29.620909    -19.982824    -2.556006    -1.730025    33.796726    0.000000    0.000000    0.000000    1.440204    8.667026    -5.124341    2.396745    28.471249    1.425248    -4.434199    -35.167816    0.633773    0.000000    0.000000    0.000000    
-6.632080    150.542862    -27.605810    1.891827    1.842710    14.330387    -1.436236    2.775729    7.260405    -2.545681    -1.145207    2.383397    -1.670947    3.722353    -12.026245    10.537335    -7.034441    -10.209231    -1.342901    6.373435    -7.820614    -42.046459    19.205275    -36.355045    1.212139    -31.506386    -126.358170    -10.740887    -28.349295    -13.192262    -1.762901    11.547757    0.051331    40.803150    10.679948    53.180355    -30.244511    -31.155027    57.891479    15.331187    -10.752398    34.163807    -2.356956    -34.692043    -23.506826    -14.264796    29.654768    -20.022713    -2.513582    -1.714108    33.825733    0.000000    0.000000    0.000000    1.440602    8.660038    -5.134431    2.387631    28.495728    1.458355    -4.455820    -35.184208    0.611371    0.000000    0.000000    0.000000    
-6.634960    150.534134    -27.598656    1.895200    1.836526    14.324935    -1.435752    2.778887    7.271823    -2.538895    -1.150372    2.387156    -1.652759    3.723650    -12.021430    10.487545    -7.016418    -10.217946    -1.350517    6.362875    -7.807837    -42.043751    19.201681    -36.324242    1.202048    -31.493179    -126.352272    -10.717021    -28.357086    -13.179364    -1.771547    11.552441    0.047567    40.798595    10.710176    53.204437    -30.239111    -31.176289    57.899960    15.365059    -10.761651    34.197567    -2.380757    -34.692074    -23.546402    -14.261334    29.680241    -20.024714    -2.474883    -1.711609    33.861462    0.000000    0.000000    0.000000    1.437311    8.670280    -5.119644    2.398020    28.498339    1.451954    -4.450881    -35.195404    0.617351    0.000000    0.000000    0.000000    
-6.639001    150.524414    -27.596951    1.898724    1.834788    14.317773    -1.428149    2.773203    7.282930    -2.554231    -1.140312    2.391008    -1.635163    3.698241    -12.022638    10.458990    -6.969632    -10.230786    -1.336663    6.364131    -7.791967    -42.040699    19.212908    -36.326496    1.219780    -31.528116    -126.329834    -10.717524    -28.362989    -13.183794    -1.759780    11.538609    0.042892    40.782791    10.750683    53.222542    -30.253866    -31.201788    57.897121    15.368675    -10.784723    34.179527    -2.401114    -34.700954    -23.582014    -14.257936    29.709871    -20.040300    -2.446494    -1.707772    33.902390    0.000000    0.000000    0.000000    1.433576    8.668995    -5.126088    2.396651    28.510546    1.458384    -4.471116    -35.203293    0.613132    0.000000    0.000000    0.000000    
-6.644313    150.516586    -27.590456    1.898948    1.825848    14.309154    -1.431234    2.780195    7.296041    -2.536541    -1.147624    2.395355    -1.641630    3.691706    -12.025074    10.437330    -6.934598    -10.239946    -1.349895    6.353906    -7.793777    -42.052380    19.193104    -36.290367    1.193199    -31.489166    -126.344086    -10.678045    -28.375139    -13.149502    -1.776307    11.557384    0.030400    40.778858    10.782117    53.266682    -30.284573    -31.218040    57.883663    15.387537    -10.784196    34.179024    -2.412454    -34.704613    -23.617556    -14.257769    29.744480    -20.023560    -2.418609    -1.709657    33.906536    0.000000    0.000000    0.000000    1.436258    8.683248    -5.118933    2.397657    28.504807    1.447773    -4.480701    -35.223705    0.625150    0.000000    0.000000    0.000000    
-6.644012    150.507782    -27.581955    1.907924    1.811600    14.309865    -1.427468    2.789686    7.299641    -2.541503    -1.147524    2.396511    -1.649285    3.704860    -12.028683    10.439068    -6.924122    -10.243599    -1.349261    6.359009    -7.784628    -42.049541    19.195589    -36.285061    1.191933    -31.499561    -126.334435    -10.672297    -28.388927    -13.151286    -1.780752    11.560056    0.042061    40.837139    10.740783    53.257523    -30.216007    -31.169184    57.969837    15.412716    -10.732383    34.167156    -2.428401    -34.692192    -23.664034    -14.266124    29.755842    -20.004673    -2.387851    -1.711216    33.909073    0.000000    0.000000    0.000000    1.432641    8.700457    -5.133895    2.387827    28.512154    1.457073    -4.477646    -35.236401    0.644686    0.000000    0.000000    0.000000    
-6.655097    150.502640    -27.573002    1.905663    1.799853    14.304444    -1.429936    2.799745    7.308269    -2.536665    -1.157270    2.399137    -1.656425    3.704104    -12.035546    10.454295    -6.895049    -10.249479    -1.345870    6.362351    -7.789027    -42.060085    19.186138    -36.266586    1.184833    -31.489841    -126.339233    -10.674314    -28.391054    -13.149404    -1.768910    11.561652    0.042796    40.770485    10.831437    53.275490    -30.339148    -31.239035    57.887852    15.428490    -10.764141    34.161533    -2.421528    -34.692757    -23.673140    -14.283029    29.783337    -19.973827    -2.365714    -1.713863    33.904446    0.000000    0.000000    0.000000    1.444526    8.706644    -5.154244    2.364286    28.530577    1.488048    -4.462218    -35.237804    0.650855    0.000000    0.000000    0.000000    
-6.663497    150.494568    -27.568787    1.907984    1.794623    14.300460    -1.435925    2.799498    7.310466    -2.526006    -1.153904    2.400006    -1.664715    3.703313    -12.041891    10.460617    -6.880409    -10.255184    -1.351967    6.361759    -7.792597    -42.067577    19.169025    -36.244308    1.162332    -31.461435    -126.358116    -10.662111    -28.401377    -13.148518    -1.767483    11.559934    0.048666    40.789276    10.811958    53.284683    -30.283571    -31.215916    57.942528    15.438017    -10.748490    34.160477    -2.414273    -34.691944    -23.686001    -14.308243    29.787792    -19.942032    -2.350930    -1.715787    33.907978    0.000000    0.000000    0.000000    1.446314    8.709153    -5.165994    2.357215    28.542276    1.498740    -4.457503    -35.257191    0.661390    0.000000    0.000000    0.000000    
-6.673391    150.485016    -27.559958    1.909978    1.790584    14.308203    -1.447485    2.798175    7.306560    -2.509771    -1.150680    2.398857    -1.689061    3.700386    -12.045433    10.487126    -6.860232    -10.252519    -1.362603    6.359784    -7.800281    -42.059361    19.183702    -36.234386    1.182655    -31.498537    -126.352486    -10.682509    -28.402451    -13.147717    -1.775903    11.552823    0.049510    40.804592    10.816751    53.293488    -30.255886    -31.198843    57.974075    15.416889    -10.739518    34.168594    -2.414978    -34.696976    -23.672607    -14.310637    29.811255    -19.953037    -2.335534    -1.726652    33.894852    0.000000    0.000000    0.000000    1.448455    8.715180    -5.171894    2.363630    28.551613    1.508505    -4.478729    -35.267715    0.648211    0.000000    0.000000    0.000000    
-6.681109    150.478287    -27.553818    1.911164    1.791510    14.311403    -1.454283    2.796463    7.306040    -2.504463    -1.149645    2.398707    -1.683461    3.704842    -12.048988    10.483199    -6.862960    -10.257488    -1.364279    6.366016    -7.799616    -42.061993    19.170797    -36.241528    1.170394    -31.477156    -126.367500    -10.663431    -28.404305    -13.131561    -1.781914    11.563519    0.053748    40.835640    10.787389    53.293423    -30.194147    -31.168432    58.051239    15.403917    -10.721226    34.146851    -2.410053    -34.704632    -23.650620    -14.315443    29.826826    -19.950947    -2.305749    -1.712827    33.867035    0.000000    0.000000    0.000000    1.451815    8.707107    -5.178099    2.362718    28.574963    1.540069    -4.504113    -35.271664    0.599438    0.000000    0.000000    0.000000    
-6.691588    150.473892    -27.544397    1.908323    1.791785    14.317581    -1.459599    2.792118    7.302474    -2.505309    -1.144629    2.397600    -1.676493    3.691725    -12.058050    10.492148    -6.845539    -10.267337    -1.353490    6.362903    -7.810225    -42.073463    19.168976    -36.238159    1.173990    -31.471310    -126.380623    -10.652615    -28.393265    -13.123005    -1.767776    11.567452    0.042151    40.815464    10.769975    53.328232    -30.378922    -30.873224    57.933083    14.941130    -10.519350    33.702518    -2.399888    -34.711063    -23.634703    -14.334173    29.836807    -19.946487    -2.274928    -1.707888    33.865715    0.000000    0.000000    0.000000    1.460788    8.708928    -5.181883    2.361798    28.574675    1.524066    -4.485436    -35.280170    0.622186    0.000000    0.000000    0.000000    
-6.698411    150.465576    -27.540171    1.914218    1.797662    14.323872    -1.470559    2.786737    7.298341    -2.507928    -1.141958    2.396181    -1.691205    3.697827    -12.062944    10.538038    -6.850644    -10.261223    -1.351354    6.362850    -7.818535    -42.073475    19.179283    -36.239590    1.178416    -31.478577    -126.383705    -10.698871    -28.384867    -13.163390    -1.766327    11.569757    0.037648    40.813416    10.782493    53.336910    -30.366909    -30.880337    57.951572    14.945773    -10.527350    33.697838    -2.405176    -34.721901    -23.596401    -14.316750    29.860792    -20.000942    -2.266631    -1.704739    33.846840    0.000000    0.000000    0.000000    1.456966    8.704842    -5.191156    2.368138    28.579594    1.506098    -4.470150    -35.295834    0.632873    0.000000    0.000000    0.000000    
